<?xml version="1.0" encoding="utf-8"?>
<!-- Generator: Adobe Illustrator 24.2.1, SVG Export Plug-In . SVG Version: 6.00 Build 0)  -->
<svg version="1.1" xmlns="http://www.w3.org/2000/svg" xmlns:xlink="http://www.w3.org/1999/xlink" x="0px" y="0px"
	 viewBox="0 0 113.39 141.73" style="enable-background:new 0 0 113.39 141.73;" xml:space="preserve">
<style type="text/css">
	.st0{fill:#FFFFFF;}
	.st1{fill:#D4E8F8;}
	.st2{fill:#6058A2;}
	.st3{fill:#F7BD94;}
	.st4{fill:#88571F;}
	.st5{fill:#EBB48D;}
	.st6{fill:#87B6DB;}
	.st7{fill:#A0C8EC;}
	.st8{fill:#9B4D1A;}
	.st9{fill:#CFE4F7;}
	.st10{fill:#EC734F;}
	.st11{fill:#5377B5;}
	.st12{fill:#577DBE;}
	.st13{fill:#AD7C5D;}
	.st14{fill:#C88E6B;}
	.st15{fill:#0062AE;}
	.st16{fill:#4D1D00;}
	.st17{fill:#7DC0EB;}
	.st18{fill:#6B2A0C;}
	.st19{fill:#4E250F;}
	.st20{fill:#63311A;}
	.st21{fill:#C48056;}
	.st22{fill:#00B2CE;}
	.st23{fill:#B2754E;}
	.st24{fill:#A66F20;}
	.st25{fill:#2C52A0;}
	.st26{fill:#4B1A0A;}
	.st27{fill:#32A3D4;}
	.st28{fill:#526598;}
	.st29{fill:#4B70A4;}
</style>
<g id="Capa_1">
	<rect x="-555.33" y="-23.31" class="st0" width="510.24" height="453.54"/>
	<g>
		<g>
			<path class="st1" d="M-307.07,116.33c0,4.43-20.75,8.03-46.35,8.03s-46.35-3.6-46.35-8.03c0-4.44,20.75-8.03,46.35-8.03
				S-307.07,111.89-307.07,116.33z"/>
			<g>
				<g>
					<path class="st2" d="M-388.06,116.78h22.71c2.01-7.29,3.04-12.58,3.25-14.52c0,0,0.46-10.77-10.59-9.85
						c0,0-12.61-0.24-14.71,14.43C-387.41,106.84-387.3,110.44-388.06,116.78z"/>
				</g>
				<g>
					<rect x="-360.82" y="73.63" class="st3" width="12.33" height="16.5"/>
				</g>
				<path class="st3" d="M-326.75,97.27c-3.43-5.31-8.82-6.74-8.82-6.74l-12.92-4.79h-12.33l-12.91,4.79c0,0-5.39,1.44-8.82,6.74
					H-326.75z"/>
				<path class="st2" d="M-329.88,116.78l-0.04-1.33l5.7-11.32c-1.66-11.02-11.35-13.6-11.35-13.6l-9.85-3.65l-11.24,3.81
					l-7.51-3.71l-9.56,3.54c0,0-9.69,2.58-11.35,13.6l4.61,12.65H-329.88z"/>
				<g>
					<path class="st2" d="M-343.31,116.78h24.54c-3.21-10.41-6.28-17.62-7.48-19.79c0,0-5.85-9.06-14.33-1.92
						c0,0-10.44,7.08-3.68,20.28C-344.26,115.34-343.92,115.83-343.31,116.78z"/>
				</g>
				<g>
					<path class="st4" d="M-375.4,50.18c-0.29-2.25-0.53-3.02-0.58-8.35c-0.03-2.51,0.47-6.3,3.59-6.62
						c4.32-0.44,5.66,7.03,5.91,10.26c0.35,4.46-0.75,9.28-1.61,13.65c-0.31,1.58-0.28,4.73-2.05,5.49
						c-1.52,0.65-1.26,0.89-2.04-0.25C-374.05,61.61-375,53.36-375.4,50.18z"/>
					<path class="st3" d="M-373.06,71.33c1.71,6.69,4.73,8.54,4.73,8.54l4.04,0.79c2.33-0.3,6.33-1.24,6.33-1.24
						c9.23-3.14,12.29-2.95,14.2-7.75c0.06-0.15,6.42-24.94,6.42-24.94c1.18-12.89-12.31-15.57-14.35-15.91
						c-2.01-0.46-14.87-4.04-18.66,8.34C-370.36,39.15-375.97,53.49-373.06,71.33z"/>
					<path class="st5" d="M-346.71,73.84c-3.71,2.87-10,4.75-14.62,5.24c-8.21,0.87-10.06-5.18-11.47-11.58
						c0.13,1.47,0.29,2.97,0.54,4.51c1.6,6.24,4.41,7.97,4.41,7.97l3.77,0.73c2.17-0.28,5.91-1.16,5.91-1.16
						c8.61-2.93,11.47-2.75,13.24-7.23c0.01-0.02,0.12-0.46,0.31-1.2C-345.19,72.16-345.83,73.15-346.71,73.84z"/>
					<path class="st4" d="M-354.7,26.57c3.84-0.51,8.3-1.48,12.08-0.25c5.05,1.65,5.03,7.4,7.31,11.33
						c2.43,4.18,3.96,7.71,3.75,12.27c-0.16,3.53-1.54,1.8-2.05,5.41c-0.57,4.02-1.33,4.33-3.24,7.69l-6.93,8.66
						c1.11-4.39,0.27-5.21,1.28-8.58c1.22-4.05,0.86-9.47-0.95-13.63c-1.6-3.68-2.71-3.6-6.11-4.49c-4.37-1.14-8.14-1.57-12.68-1.64
						c-4.15-0.06-8.66-0.19-12.03-2.96c-3.1-2.55-4.25-8.21-3.05-12.1c0,0,1.9-4.29,7.25-3.13c3.27,0.72,6.6,1.68,9.97,1.79
						C-358.23,26.98-356.45,26.8-354.7,26.57z"/>
					<path class="st3" d="M-343.33,60.64c0,0,2.28-4.97,5.87-2.03c0,0,1.63,1.28-0.38,4.6c0,0-2.92,4.78-6.42,2.13L-343.33,60.64z"
						/>
					<path class="st4" d="M-342.98,49.04c0,0-0.02,8.9-1.65,13.62l1.74,0.35c0,0,0.91-6.1,4.05-6.18L-342.98,49.04z"/>
				</g>
			</g>
		</g>
		<g>
			<path class="st1" d="M-307.07,239.98c0,4.44-20.75,8.03-46.35,8.03s-46.35-3.6-46.35-8.03c0-4.44,20.75-8.03,46.35-8.03
				S-307.07,235.54-307.07,239.98z"/>
			<g>
				<path class="st6" d="M-372.85,239.98c-2.93-3.16-6.42-5.42-10.35-5.15c0,0-0.19,1.64-0.33,5.15H-372.85z"/>
				<g>
					<rect x="-358.95" y="204.63" class="st3" width="12.33" height="16.5"/>
				</g>
				<path class="st3" d="M-324.88,228.27c-3.43-5.31-8.82-6.75-8.82-6.75l-12.92-4.79h-12.33l-12.91,4.79c0,0-5.39,1.44-8.82,6.75
					H-324.88z"/>
				<path class="st7" d="M-324.79,239.98l2.44-4.86c-1.66-11.02-11.35-13.6-11.35-13.6l-12.92-4.79l-8.18,4.95l-4.15-4.95
					l-12.91,4.79c0,0-9.69,2.58-11.35,13.6l1.77,4.86H-324.79z"/>
				<g>
					<path class="st3" d="M-368.13,204.81c2.56,6.41,5.79,7.85,5.79,7.85l4.11,0.26c2.27-0.6,6.12-2.05,6.12-2.05
						c8.75-4.31,11.8-4.52,13.07-9.52c0.04-0.15,3.12-25.56,3.12-25.56c-0.5-12.94-14.23-13.84-16.29-13.91
						c-2.06-0.2-15.26-2.07-17.42,10.69C-369.63,172.56-373.33,187.51-368.13,204.81z"/>
					<path class="st3" d="M-368.02,201.58c1.74,3.35,4.94,7.24,9.14,7.19c3.13-0.04,6.81-1.38,9.69-2.59
						c3.11-1.3,7.08-2.52,9.76-4.52c0.13-0.1,0.26-0.21,0.39-0.31c0,0,0,0,0-0.01c0.04-0.15,3.12-25.56,3.12-25.56
						c-0.5-12.94-14.23-13.84-16.29-13.91c-2.06-0.2-15.26-2.07-17.42,10.69c0,0-3.19,12.94,0.55,28.68
						C-368.72,201.07-368.27,201.11-368.02,201.58z"/>
					<path class="st5" d="M-342.24,205.04c-5.09,2.38-8,4.02-11.92,5.38c-6,2.09-9.17,2.45-14-5.74c0.01,0.04,0.02,0.08,0.04,0.12
						c2.56,6.41,5.79,7.85,5.79,7.85l4.11,0.26c2.27-0.6,6.12-2.05,6.12-2.05c6.85-3.38,10.21-4.24,11.95-6.87
						C-340.83,204.38-341.53,204.71-342.24,205.04z"/>
					<path class="st8" d="M-339.04,201.35c9.47-11.54,8.78-27.78,8.78-27.78c0.93-21.94-25.04-18.81-25.04-18.81
						c-9.22-0.13-9.01-4.67-9.01-4.67c-4.4,3.24-3.13,8.38-3.13,8.38c-1.6-0.07-1.72-2.96-1.72-2.96c-5.8,4.49-2.41,10.7-2.41,10.7
						c-1.13,6.27,0.76,22.86,0.76,22.86s0.52-16.63,5-20.19c0,0,4.49-2.11,7.65,0.53c0,0,14.97-5.79,16.96,9.41l1.93,13.25
						L-339.04,201.35z"/>
					<path class="st3" d="M-340.04,190.35c0,0,1.62-5.23,5.56-2.77c0,0,1.78,1.05,0.22,4.61c0,0-2.27,5.12-6.09,2.95L-340.04,190.35
						z"/>
					<path class="st8" d="M-341.2,178.81c0,0,1.14,8.82,0.13,13.72l1.77,0.11c0,0,0.11-6.17,3.21-6.65L-341.2,178.81z"/>
				</g>
				<g>
					<path class="st6" d="M-318.75,239.98c-0.53-3.29-0.94-5.38-1.11-5.86c0,0-1.29-10.36-12.54-8.53c0,0-8.84,2.79-7.25,14.4
						H-318.75z"/>
				</g>
				<polygon class="st9" points="-354.79,221.69 -359.08,214.98 -365.81,218.54 -360.76,226.65 				"/>
				<polygon class="st9" points="-354.79,221.69 -346.62,214.09 -339.86,218.34 -348.79,227.15 				"/>
			</g>
		</g>
		<g>
			<path class="st1" d="M-433.91,116.33c0,4.43-18.53,8.03-41.4,8.03c-22.86,0-41.4-3.6-41.4-8.03c0-4.44,18.53-8.03,41.4-8.03
				C-452.44,108.3-433.91,111.89-433.91,116.33z"/>
			<g>
				<path class="st10" d="M-484.46,97.58c-0.3,6.24-0.35,12.67,4.16,17.41c0.7,0.73,1.49,1.3,2.31,1.79h24.52
					c1.06-2.84,0.07-6.69,0.92-9.71c0.89-3.13,3.47-5,4.36-7.95c2.69-8.88-7.9-12.26-8.97-20.14c-0.92-6.79,4.26-12.46,6.1-18.4
					c1.59-5.12,1.39-11.55-0.75-16.53c-0.67-1.55-1.73-2.77-3.38-3.39c-1.43-0.54-5.45-1.54-6.91-1.11
					c-1.04,0.3-2.03,1.57-3.01,2.08c-4.05,2.12-8.09,2.68-10.11,7.27c-2.22,5.06-0.7,10.58-2.66,15.59
					c-2.41,6.15-6.19,11.37-6.8,18.21C-485.1,87.64-484.22,92.63-484.46,97.58z"/>
				<path class="st3" d="M-448.34,100.9c-3.26-5.04-8.39-6.41-8.39-6.41l-12.28-4.55h-11.72L-493,94.48c0,0-5.12,1.37-8.39,6.41
					H-448.34z"/>
				<path class="st3" d="M-459.29,116.78h13.87c-0.72-5.61-1.65-11.02-2.91-15.88c0,0-4.36-5.48-11.04-1.08
					c0,0-5.09,5.07-0.54,13.78L-459.29,116.78z"/>
				<path class="st11" d="M-458.65,116.78h13.97c-1.11-7.68-2.14-13.09-2.14-13.09c-1.15-6.07-6.78-7.79-6.78-7.79
					c-5.74,0.9-5.53,10.04-5.53,10.04L-458.65,116.78z"/>
				<g>
					<rect x="-480.73" y="78.42" class="st3" width="11.72" height="15.69"/>
				</g>
				<path class="st0" d="M-451.18,116.78c-0.09-1.93-0.44-3.18-0.44-3.18c-7.66-13.92-4.39-18.87-4.39-18.87l-9.16-3.37
					c-0.94,3.96-5.2,5.74-5.2,5.74c-8.14-0.86-13.55-5.98-13.55-5.98l-9.09,3.37c0,0-9.21,2.45-10.79,12.94l6.18,9.36H-451.18z"/>
				<g>
					<path class="st3" d="M-483.28,74.53c0.5,1.15,1.19,2.21,2.16,3.15c4.3,4.14,10.05,7.04,16.09,7.04
						c15.75-6.88,10.65-37.21,10.65-37.21c-2.37-14.51-14.78-14.48-14.78-14.48c-9.38-0.41-17.94,4.03-19.38,13.91
						c-0.55,3.79,0.18,7.85,0.37,11.63c0.14,2.78,0.48,5.55,1.37,8.21C-485.91,69.48-484.41,71.92-483.28,74.53z"/>
					<path class="st5" d="M-456.81,76.17c-1.74,3.73-4.35,6.85-8.22,8.55c-6.04,0-11.78-2.9-16.09-7.04c-0.97-0.93-1.66-2-2.16-3.15
						c-0.2-0.48-0.43-0.94-0.66-1.41C-476.41,81.67-465.46,89.94-456.81,76.17z"/>
					<path class="st3" d="M-484.93,63.47c0,0-1.24-5.17-5.21-3.03c0,0-1.79,0.91-0.5,4.46c0,0,1.88,5.1,5.72,3.24L-484.93,63.47z"/>
				</g>
				<g>
					<path class="st3" d="M-490.77,116.78l0.26-1.01c0,0,7.2-9.76-1.45-18.83c0,0-6.39-4.12-12.01,7.71l-1.56,12.14H-490.77z"/>
				</g>
				<path class="st10" d="M-454.48,50.56c1.39,4.62,0.78,3.98,0.78,3.98c3.58-9.51,0.1-15.92,0.1-15.92
					c-7.4-16.19-25.84-9.67-25.84-9.67c-16.15,4.04-11.67,25.27-11.67,25.27c1,8.91,6.18,11.55,6.18,11.55c-1.79-4.6,0-9.38,0-9.38
					c0.99-5.8,4.2-5.28,4.2-5.28s19.4-4.56,18.92-11.8C-461.81,39.32-460.91,46.49-454.48,50.56z"/>
				<path class="st12" d="M-476.99,116.78v-12.47l-7.94-12.81l-8.08,2.99c0,0-0.03,0.01-0.07,0.02c-0.02,0.01-0.04,0.01-0.07,0.02
					c-0.04,0.02-0.1,0.03-0.16,0.05c-0.05,0.02-0.08,0.03-0.14,0.05c-0.09,0.03-0.2,0.07-0.32,0.12c-0.06,0.03-0.13,0.05-0.21,0.08
					c-0.12,0.05-0.25,0.1-0.38,0.16c-0.09,0.04-0.17,0.08-0.26,0.12c-0.11,0.05-0.23,0.11-0.36,0.17c-0.1,0.05-0.21,0.1-0.32,0.16
					c-0.15,0.08-0.31,0.17-0.48,0.26c-0.16,0.09-0.31,0.18-0.48,0.28c-0.15,0.09-0.31,0.19-0.47,0.29
					c-0.13,0.08-0.25,0.17-0.38,0.26c-0.15,0.1-0.29,0.2-0.43,0.31c-0.13,0.1-0.26,0.19-0.4,0.3c-0.02,0.02-0.05,0.04-0.07,0.05
					c-1.87,1.08-3.96,3.26-5.96,7.46l-1.56,12.14H-476.99z"/>
				<path class="st12" d="M-450.78,116.78c-0.2-1.81-0.71-3.81-1.67-6.02c-3.46-5.74,0.06-14.08,0.06-14.08
					c-1.48-1.05-2.84-1.65-3.63-1.95l0,0l-0.19-0.07c-0.01,0-0.02-0.01-0.03-0.01l-6.14-2.26l-2.88,9.35l0.06,15.04H-450.78z"/>
				<path class="st10" d="M-505.82,114.09c0.14,0.95,0.45,1.84,0.84,2.68h26.37c1.04-1.85,1.71-4.07,2.07-6.63
					c0.69-4.78-1.53-7.84-2.09-12.37c-0.67-5.47,3.89-6.47,6.06-10.68c2.53-4.89,1.14-8.28-1.91-11.88
					c-2.76-3.25-2.35-7.12-2.46-11.48c-0.16-5.83,3.99-5.02,5.55-9.58c1.56-4.54-0.19-14.3-3.86-17.43
					c-3.32-2.83-9.74-5.71-12.45-2.61c-2.96,3.39-7.89,10.22-7.04,18.13c0.67,6.25,4.32,12.24-0.51,18.13
					c-4.6,5.61-13.59,11.86-8.91,20.24c2.48,4.45,4.11,5.65,2,11.1C-503.82,106.01-506.52,109.17-505.82,114.09z"/>
			</g>
		</g>
		<g>
			<path class="st1" d="M-433.91,239.98c0,4.44-18.53,8.03-41.4,8.03c-22.86,0-41.4-3.6-41.4-8.03c0-4.44,18.53-8.03,41.4-8.03
				C-452.44,231.95-433.91,235.54-433.91,239.98z"/>
			<g>
				<rect x="-475.66" y="194.12" class="st13" width="20.99" height="39.14"/>
				<path class="st14" d="M-466.38,239.98l0.81-82.73c-24.86-3.67-27.37,13.48-27.37,13.48l-3.62,69.25H-466.38z"/>
				<g>
					<path class="st3" d="M-485.91,239.98c1.5-16.41-9.23-14.55-9.23-14.55c-5.17,0.27-6.27,9.39-6.49,14.55H-485.91z"/>
				</g>
				<g>
					<rect x="-478.53" y="206.04" class="st3" width="11.72" height="15.69"/>
				</g>
				<path class="st3" d="M-448.12,228.52c-3.25-6.01-6.41-6.41-6.41-6.41l-12.28-4.55h-11.72l-12.27,4.55c0,0-5.13,1.37-8.39,6.41
					H-448.12z"/>
				<path class="st3" d="M-459.49,200.05c-2.19,3.37-5.08,6.16-8.96,8.04c-1.44,0.7-2.96,1.25-4.52,1.63
					c-1.11,0.27-3.6,1.05-4.69,0.57c-15.75-6.88-10.65-37.21-10.65-37.21c2.37-14.52,14.78-14.48,14.78-14.48
					c9.38-0.41,17.94,4.02,19.38,13.91c0.55,3.79-0.18,7.85-0.37,11.63c-0.14,2.78-0.48,5.55-1.37,8.21
					C-456.8,195.12-457.98,197.72-459.49,200.05z"/>
				<path class="st5" d="M-475.7,209.11c7-0.5,12.62-5.93,17.31-10.91c-0.35,0.63-0.71,1.25-1.1,1.85
					c-2.19,3.37-5.08,6.16-8.96,8.04c-1.44,0.7-2.96,1.25-4.52,1.63c-1.11,0.27-3.6,1.05-4.69,0.57c-2.48-1.08-4.44-2.75-5.99-4.79
					C-481.53,207.01-478.42,209.3-475.7,209.11z"/>
				<path class="st14" d="M-460.86,201.95c1.45-10.64,1.71-18.75-6.38-22.3c-5.46-2.4-19.32-3.27-19.32-12.3
					c0-7.14,7.07-8.61,12.87-10.14c8.77-2.31,21.73,4.35,23.86,13.47C-449.83,170.68-446.07,193.57-460.86,201.95z"/>
				<path class="st3" d="M-460.85,189.05c0,0,1.24-5.16,5.21-3.03c0,0,1.79,0.91,0.5,4.45c0,0-1.88,5.11-5.72,3.24L-460.85,189.05z"
					/>
				<path class="st15" d="M-448.66,239.98l1.84-4.94c-2.01-11.75-7.39-13.07-7.39-13.07l-9.4-3.23c0,0-5.4,5.12-13.55,5.98
					c0,0-4.26-1.79-5.2-5.74l-6.15,2.26c0,0-1.21,5.9-6.86,18.74H-448.66z"/>
				<g>
					<path class="st3" d="M-445.62,239.98l-0.14-0.92c-0.53-13.08-7.37-16.56-7.37-16.56c-9.36,0.58-9.68,10.98-8.95,17.48H-445.62z
						"/>
				</g>
				<path class="st14" d="M-459.83,192.1v47.88h13.36l-1.22-54.47c0,0,1.56-20.31-11.99-26.07l-4.1,20.51
					C-463.79,179.95-460.36,180.5-459.83,192.1z"/>
			</g>
		</g>
		<g>
			<path class="st1" d="M-195.59,116.33c0,4.43-18.54,8.03-41.4,8.03s-41.4-3.6-41.4-8.03c0-4.44,18.53-8.03,41.4-8.03
				S-195.59,111.89-195.59,116.33z"/>
			<g>
				<path class="st16" d="M-265.68,43.27c-0.02,1.51-0.01,2.37,0.84,3.65c0.74,1.13,1.34,1.54,1.34,2.9c0,2.19-1.7,4.37-2.02,6.61
					c-0.73,5.03,2.55,12.41,8.95,13.53c7.28,1.27,10.99-3.34,13.6-8.68c3.84-7.85,0.55-16.08-2.14-23.65
					c-0.76-2.14-0.62-3.77-2.96-5c-3.79-1.99-8.39-0.48-11.86,1.48C-263.47,36.11-265.63,39.57-265.68,43.27z"/>
				<g>
					<path class="st3" d="M-207.21,116.33l-1.17-6c0,0-1.18-13.25-7.4-11.18c0,0-8.62,3.46-6.02,17.18H-207.21z"/>
				</g>
				<g>
					<rect x="-241.95" y="80.08" class="st3" width="11.72" height="15.69"/>
				</g>
				<path class="st3" d="M-262.62,102.55c3.26-5.04,8.39-6.41,8.39-6.41l12.28-4.55h11.72l12.27,4.55c0,0,5.13,1.37,8.39,6.41
					H-262.62z"/>
				<path class="st17" d="M-214.22,116.33l7.06-7.26c-1.58-10.48-10.8-12.93-10.8-12.93l-9.08-3.37l-6.76,4.3l-11.07-4.4l-9.37,3.47
					c0,0-9.21,2.45-10.8,12.93c0,0,2.58,3.92,4.77,7.26H-214.22z"/>
				<g>
					<path class="st3" d="M-252.1,116.33l0.65-3.32c0,0,2.02-10.19-5.09-13.44c0,0-9.62-1.76-9.85,15.13l-0.16,1.63H-252.1z"/>
				</g>
				<path class="st17" d="M-250.11,116.33l0.27-1.58c2.31-11.35-5.69-17.56-5.69-17.56c-8.68,1.73-11.13,9.13-11.13,9.13
					l-3.04,10.01H-250.11z"/>
				<path class="st17" d="M-224.37,116.33h20.09l-5.1-12.91c0,0-3.53-6.98-11.25-4.39c0,0-7.26,5.04-4.04,16.17L-224.37,116.33z"/>
				<path class="st3" d="M-249.19,73.53c0.5,1.15,1.19,2.21,2.16,3.15c4.3,4.14,10.05,7.04,16.09,7.04
					c15.75-6.88,10.64-37.21,10.64-37.21c-2.37-14.51-14.78-14.48-14.78-14.48c-9.38-0.41-17.94,4.02-19.38,13.91
					c-0.55,3.78,0.18,7.85,0.37,11.63c0.14,2.78,0.48,5.55,1.37,8.21C-251.82,68.47-250.32,70.92-249.19,73.53z"/>
				<path class="st5" d="M-230.16,81.94c-6.1,1.38-12.35-3.04-17.63-6.1c0.23,0.28,0.48,0.56,0.76,0.83
					c4.3,4.14,10.05,7.04,16.09,7.04c1.8-0.79,3.31-1.89,4.6-3.2C-227.58,81.15-228.85,81.65-230.16,81.94z"/>
				<path class="st18" d="M-219.5,60.84c0.3-4.79-0.13-8.62-3.1-12.44c-2.77-3.57-7.09-4.01-7.92-9.17
					c-0.71-4.45-6.45-10.62-0.86-9.82c9.14,1.3,13.76,11.36,13.98,16.15c0.21,4.37,0.24,9.71-1.85,13.44L-219.5,60.84z"/>
				<path class="st18" d="M-243,51.07c-7.1,4.22-8.88,14.07-6.54,21.71c-5.13-4.1-7.62-7.69-9.26-12.81
					c-1.7-5.32-1.64-8.33-1.1-13.96c1.35-14.02,15.79-21.57,31.24-15.32c5.72,2.31,4.61,9.63,0.25,13.59
					C-232.44,47.93-238.42,48.36-243,51.07z"/>
				<path class="st3" d="M-249,61.4c0,0-1.24-5.17-5.21-3.03c0,0-1.79,0.91-0.5,4.45c0,0,1.88,5.1,5.71,3.24L-249,61.4z"/>
			</g>
		</g>
		<g>
			<path class="st1" d="M-195.59,239.98c0,4.43-18.54,8.03-41.4,8.03s-41.4-3.6-41.4-8.03c0-4.44,18.53-8.03,41.4-8.03
				S-195.59,235.54-195.59,239.98z"/>
			<g>
				<path class="st19" d="M-224.46,187.89c-5.19,0.76-6.54,10.07-0.52,10.53c0,4.68-2.9,13.46,4.11,12.89
					c-2.11,12.06,14.22,1.71,16.61-0.88c11.17-12.11,6-32.65-1.17-34.62c1.51-9.78-10.15-17.19-18.75-15.6
					c-5.47,1.01-9.1,10.48-8.09,16.15C-232.06,177.61-225.16,187.99-224.46,187.89z"/>
				<path class="st20" d="M-258.4,166.7c-1.38,2.98-2.17,7.23-0.84,10.28c2.95,6.76,16.19,8.54,19.84,1.8
					c2.72-5.03,1.08-12.27-2.72-16.32C-247.4,156.83-255.43,160.3-258.4,166.7z"/>
				<path class="st21" d="M-210.81,239.98c2.05-4.81,3-12.02-5.35-17.78l-15.13,3.13c0,0-0.15,8.53,3.14,14.64H-210.81z"/>
				<g>
					<path class="st21" d="M-249.42,239.98c2.63-17.82-7.68-16.96-7.68-16.96c-6.95,1.99-7.92,12.47-8.02,16.96H-249.42z"/>
				</g>
				<g>
					<rect x="-241.7" y="205.55" class="st21" width="11.72" height="15.69"/>
				</g>
				<path class="st21" d="M-262.37,228.03c3.26-5.04,8.39-6.42,8.39-6.42l12.28-4.55h11.72l12.28,4.55c0,0,5.12,1.37,8.39,6.42
					H-262.37z"/>
				<path class="st22" d="M-223.32,239.98c-3.51-6.17-3.65-12.7,0.63-20.21l-4.1-1.52c0,0-5.4,5.12-13.55,5.97
					c0,0-4.26-1.78-5.2-5.74l-4.11,1.51c0,0-1.73,6.58-9.04,19.98H-223.32z"/>
				<g>
					<path class="st21" d="M-227.43,201.66c-0.5,1.15-1.19,2.21-2.16,3.15c-4.3,4.14-10.05,7.04-16.08,7.04
						c-15.75-6.88-10.65-37.21-10.65-37.21c2.37-14.52,14.78-14.48,14.78-14.48c9.38-0.41,17.94,4.02,19.38,13.91
						c0.55,3.78-0.18,7.85-0.37,11.63c-0.14,2.78-0.48,5.56-1.37,8.21C-224.8,196.61-226.3,199.05-227.43,201.66z"/>
					<path class="st23" d="M-253.89,203.3c1.74,3.74,4.34,6.86,8.22,8.55c6.03,0,11.78-2.9,16.08-7.04
						c0.97-0.93,1.66-1.99,2.16-3.15c0.21-0.47,0.43-0.94,0.66-1.4C-234.29,208.81-245.25,217.07-253.89,203.3z"/>
					<path class="st21" d="M-225.78,190.6c0,0,1.24-5.16,5.21-3.03c0,0,1.79,0.91,0.5,4.45c0,0-1.88,5.11-5.71,3.24L-225.78,190.6z"
						/>
				</g>
				<g>
					<path class="st21" d="M-207.16,239.98c0.1-21.32-12.2-16.24-12.2-16.24c-6.32,3.36-4.97,11.87-3.78,16.24H-207.16z"/>
				</g>
				<path class="st20" d="M-251.78,164.78c0,0-1.9,17.74,16.43,18.54c0,0,9.89,0.59,8.57,10.09c0,0,0.28-7.34,6.21-5.85
					c0,0,4.05-4.97,3.11-14.67c0,0,0.54-10.95-14.99-15.11C-232.45,157.79-250.46,154.82-251.78,164.78z"/>
			</g>
		</g>
		<g>
			<path class="st1" d="M-312.02,373.95c0,4.44-18.54,8.03-41.4,8.03s-41.4-3.6-41.4-8.03c0-4.44,18.53-8.03,41.4-8.03
				S-312.02,369.51-312.02,373.95z"/>
			<g>
				<rect x="-361.25" y="305.96" class="st24" width="31.43" height="67.98"/>
				<g>
					<path class="st3" d="M-368.45,373.95c1.25-11.77-6.37-14.82-6.37-14.82c-7.04,0-8.63,11.36-8.63,11.36l-0.55,3.46H-368.45z"/>
				</g>
				<g>
					<rect x="-359.58" y="340.06" class="st3" width="11.72" height="15.69"/>
				</g>
				<path class="st3" d="M-328.09,362.53c-3.26-5.05-7.49-6.41-7.49-6.41l-12.28-4.55h-11.72l-12.28,4.55c0,0-5.13,1.37-8.39,6.41
					H-328.09z"/>
				<rect x="-372.07" y="360.06" class="st3" width="33.11" height="13.88"/>
				<path class="st2" d="M-328,373.95c1.7-2.58,0.81-5.12,0.81-5.12c0.23-9.7-8.39-12.71-8.39-12.71l-9.37-3.47
					c0.46,17.04-14.63,14.41-14.63,14.41c-12.98-0.92-3.19-14.31-3.19-14.31l-7.52,2.79l-5.75,14.35c0,0-0.87,1.59-1.59,4.06H-328z"
					/>
				<g>
					<path class="st3" d="M-340.22,373.95h14.41l-0.13-1.58c0.02-16.9-9.63-15.27-9.63-15.27c-7.15,3.14-5.28,13.36-5.28,13.36
						L-340.22,373.95z"/>
				</g>
				<path class="st3" d="M-340.62,333.51c-0.5,1.15-1.19,2.22-2.16,3.15c-4.3,4.14-10.05,7.04-16.09,7.04
					c-15.75-6.88-10.64-37.21-10.64-37.21c2.37-14.51,14.78-14.48,14.78-14.48c9.38-0.41,17.94,4.02,19.38,13.9
					c0.55,3.79-0.18,7.85-0.37,11.63c-0.14,2.78-0.48,5.55-1.37,8.21C-337.99,328.45-339.49,330.9-340.62,333.51z"/>
				<path class="st5" d="M-359.66,341.92c6.1,1.38,12.35-3.04,17.63-6.1c-0.23,0.29-0.48,0.57-0.76,0.83
					c-4.3,4.14-10.05,7.04-16.09,7.04c-1.79-0.79-3.31-1.88-4.6-3.2C-362.24,341.13-360.96,341.63-359.66,341.92z"/>
				<path class="st24" d="M-370.31,320.81c-0.3-4.79,0.13-8.62,3.1-12.44c2.77-3.57,3.45-4.36,4.27-9.52
					c0.71-4.45,10.09-10.27,4.5-9.48c-9.14,1.3-13.76,11.36-13.98,16.15c-0.21,4.37-0.24,9.71,1.85,13.44L-370.31,320.81z"/>
				<path class="st24" d="M-348.32,316.27c12.08,3.8,10.38,8.86,8.04,16.49c5.13-4.1,7.63-7.69,9.26-12.81
					c1.71-5.32,1.65-8.33,1.11-13.96c-1.35-14.02-15.79-21.57-31.25-15.32c-5.72,2.31-4.5,11.94-1.41,16.49
					C-359.51,311.66-356.67,313.64-348.32,316.27z"/>
				<path class="st3" d="M-340.82,321.38c0,0,1.24-5.16,5.21-3.03c0,0,1.79,0.91,0.5,4.45c0,0-1.88,5.11-5.71,3.24V321.38z"/>
			</g>
		</g>
		<g>
			<path class="st1" d="M-428.96,373.95c0,4.44-20.75,8.03-46.34,8.03c-25.6,0-46.35-3.6-46.35-8.03c0-4.44,20.75-8.03,46.35-8.03
				C-449.71,365.92-428.96,369.51-428.96,373.95z"/>
			<g>
				<g>
					<path class="st25" d="M-508.77,373.95h23.66c1.05-4.34,1.62-7.46,1.77-8.85c0,0,0.46-10.77-10.59-9.85
						c0,0-12.61-0.24-14.72,14.43C-508.65,369.69-508.6,371.19-508.77,373.95z"/>
				</g>
				<g>
					<rect x="-482.06" y="336.47" class="st21" width="12.33" height="16.5"/>
				</g>
				<path class="st21" d="M-447.99,360.11c-3.43-5.3-8.82-6.74-8.82-6.74l-12.92-4.78h-12.33l-12.91,4.78c0,0-5.39,1.44-8.82,6.74
					H-447.99z"/>
				<path class="st2" d="M-448.97,373.95l3.51-6.98c-1.66-11.02-11.35-13.6-11.35-13.6l-9.85-3.65l-11.24,3.82l-7.5-3.71l-9.56,3.54
					c0,0-9.69,2.58-11.35,13.6l2.54,6.98H-448.97z"/>
				<g>
					<path class="st25" d="M-441.84,373.95c-2.49-7.34-4.68-12.37-5.65-14.12c0,0-5.85-9.05-14.33-1.92c0,0-8.2,5.57-5.34,16.04
						H-441.84z"/>
				</g>
				<g>
					<path class="st20" d="M-494.55,313.02c-0.28-2.25-0.52-3.02-0.58-8.35c-0.03-2.51,0.46-6.3,3.58-6.62
						c4.33-0.44,5.66,7.03,5.92,10.27c0.35,4.46-0.75,9.28-1.62,13.65c-0.31,1.58-0.28,4.73-2.05,5.49
						c-1.52,0.65-1.26,0.89-2.04-0.25C-493.21,324.46-494.15,316.2-494.55,313.02z"/>
					<path class="st21" d="M-494.3,334.18c1.71,6.69,4.72,8.54,4.72,8.54l4.04,0.79c2.33-0.3,6.34-1.24,6.34-1.24
						c9.23-3.14,12.29-2.95,14.2-7.75c0.06-0.15,6.41-24.94,6.41-24.94c1.18-12.89-12.31-15.57-14.35-15.91
						c-2.01-0.46-14.86-4.04-18.66,8.34C-491.6,302-497.21,316.34-494.3,334.18z"/>
					<path class="st23" d="M-467.95,336.68c-3.71,2.87-9.99,4.75-14.62,5.24c-8.21,0.87-10.06-5.18-11.47-11.58
						c0.12,1.47,0.29,2.97,0.54,4.51c1.59,6.24,4.41,7.96,4.41,7.96l3.77,0.74c2.17-0.28,5.91-1.16,5.91-1.16
						c8.61-2.93,11.46-2.75,13.24-7.23c0.01-0.02,0.12-0.46,0.32-1.2C-466.43,335-467.07,336-467.95,336.68z"/>
					<path class="st20" d="M-498.02,294.69c0.58-0.93,1.54-0.77,2.01-1.96c0.4-1-0.39-2.46,0.3-3.32c1.05-1.3,4.71-0.94,6.02-0.51
						c2.32,0.75,2.78,2.04,5.28,0.92c2.13-0.95,2.57-2.2,5.28-1.72c1.99,0.35,3.33,1.63,5.6,1.26c2.01-0.33,3.29-1.76,5.54-1.58
						c1.09,0.09,2.3,0.25,3.11,1.13c0.93,1.01,0.34,1.5,0.84,2.57c0.65,1.36,0.06,0.99,1.32,1.84c0.73,0.5,1.89,0.15,2.57,0.85
						c1.81,1.84-0.24,4.49,0.84,6.29c1.14,1.91,4.37,0.69,5.04,3.42c0.28,1.14-0.74,2.09-0.54,3.17c0.27,1.44,0.79,1.05,1.51,2.18
						c1.07,1.68,1.49,2.96,0.09,4.96c-1.56,2.24-2.13,2.42-2.13,5.52c0,3.37-0.42,2.99-2.43,5.21c-1.67,1.83-1.22,3.99-3.1,5.62
						c-0.69,0.6-1.62,0.71-2.39,1.57c-0.68,0.76-0.83,1.92-1.79,2.62c-0.39-3.92,1.87-7.64,2.06-11.58
						c0.16-3.4-0.05-9.92-2.03-12.73c-2.4-3.41-8.31-2.31-11.97-2.31C-481.6,308.09-503.87,303.94-498.02,294.69z"/>
					<path class="st21" d="M-464.57,323.48c0,0,2.28-4.97,5.87-2.03c0,0,1.63,1.27-0.38,4.6c0,0-2.92,4.78-6.42,2.14L-464.57,323.48
						z"/>
				</g>
			</g>
		</g>
		<g>
			<path class="st1" d="M-78.77,373.95c0,4.44-18.53,8.03-41.4,8.03s-41.4-3.6-41.4-8.03c0-4.44,18.53-8.03,41.4-8.03
				S-78.77,369.51-78.77,373.95z"/>
			<g>
				<path class="st26" d="M-146.95,318.16c0,0,3.72,30.22-1.82,40.76c0,0,14.84-8.12,15.79-15.38c0,0,5.3-31.35-2.28-43.67
					C-135.25,299.87-148.44,293.87-146.95,318.16z"/>
				<path class="st26" d="M-144.47,300.44c-1.39,2.98-2.17,7.23-0.84,10.28c2.95,6.77,16.19,8.55,19.84,1.8
					c2.72-5.03,1.08-12.27-2.71-16.32C-133.47,290.58-141.51,294.05-144.47,300.44z"/>
				<path class="st21" d="M-96.89,373.72c2.06-4.81,3-12.02-5.35-17.78l-15.13,3.13c0,0-0.15,8.53,3.15,14.64H-96.89z"/>
				<g>
					<rect x="-127.77" y="339.3" class="st21" width="11.72" height="15.69"/>
				</g>
				<path class="st21" d="M-148.44,361.78c3.26-5.04,8.39-6.41,8.39-6.41l12.28-4.55h11.72l12.27,4.55c0,0,5.13,1.37,8.39,6.41
					H-148.44z"/>
				<path class="st27" d="M-109.41,373.72c-3.51-6.06-3.79-12.12-1.05-20.84l-2.4-0.89c0,0-5.4,5.12-13.54,5.98
					c0,0-4.26-1.79-5.2-5.74l-4.11,1.51c0,0-1.73,6.57-9.04,19.98H-109.41z"/>
				<path class="st28" d="M-131.86,373.72l-2.15-20.61l-1.71,0.63l-6.55,2.2c-7.83,2.9-4.24,14.71-3.16,17.78H-131.86z"/>
				<path class="st28" d="M-98.04,373.72c4.22-13.88-4.2-17.78-4.2-17.78l-10.63-3.95l-5.76,21.73H-98.04z"/>
				<polygon class="st29" points="-109.47,373.72 -108.03,370.64 -112.86,369.67 -103.95,355.23 -112.86,351.99 -118.63,373.72 				
					"/>
				<path class="st21" d="M-113.5,335.4c-0.5,1.16-1.19,2.22-2.16,3.15c-4.3,4.14-10.05,7.04-16.08,7.04
					c-15.75-6.88-10.64-37.21-10.64-37.21c2.36-14.51,14.78-14.48,14.78-14.48c9.38-0.4,17.94,4.02,19.38,13.91
					c0.56,3.79-0.17,7.85-0.36,11.63c-0.14,2.78-0.48,5.55-1.37,8.21C-110.87,330.35-112.37,332.79-113.5,335.4z"/>
				<path class="st23" d="M-139.97,337.04c1.74,3.73,4.35,6.85,8.22,8.54c6.03,0,11.78-2.9,16.08-7.04
					c0.97-0.93,1.66-1.99,2.16-3.15c0.21-0.47,0.43-0.94,0.66-1.4C-120.37,342.55-131.33,350.81-139.97,337.04z"/>
				<path class="st21" d="M-111.85,324.34c0,0,1.24-5.16,5.21-3.03c0,0,1.8,0.91,0.5,4.45c0,0-1.88,5.11-5.71,3.24L-111.85,324.34z"
					/>
				<g>
					<path class="st21" d="M-89.83,373.72c-4.89-23.55-14.72-15.23-14.72-15.23c-4.64,4.24-3.25,10.94-1.65,15.23H-89.83z"/>
				</g>
				<path class="st26" d="M-140.84,295.82c0,0,1.09,20.46,19.42,21.25c0,0,9.89,0.59,8.58,10.09c0,0,0.28-7.33,6.2-5.84
					c0,0,4.05-4.97,3.11-14.67c0,0,0.54-10.95-14.99-15.1C-118.53,291.54-132.91,286.1-140.84,295.82z"/>
				<path class="st26" d="M-117.37,318.16c0,0,3.72,30.22-1.82,40.76c0,0,14.84-8.12,15.79-15.38c0,0,5.3-31.35-2.28-43.67
					C-105.67,299.87-116.34,303.67-117.37,318.16z"/>
				<path class="st28" d="M-106.54,373.72h18.05l-2.62-7.15c0,0-2.59-9.36-11.13-10.62c0,0-9.41,5.12-4.94,16.4L-106.54,373.72z"/>
				<g>
					<path class="st21" d="M-135.5,373.72c2.63-17.83-7.68-16.95-7.68-16.95c-6.95,1.99-7.92,12.47-8.02,16.95H-135.5z"/>
					<path class="st28" d="M-134.87,373.72l0.84-7.42c0,0,0.83-8.75-8.29-10.01c0,0-7.74-0.08-9.32,10.61l-0.2,6.82H-134.87z"/>
				</g>
				<polygon class="st29" points="-141.31,373.72 -131.86,373.72 -134.01,353.11 -141.6,355.95 -136.66,369.28 -142.24,370.17 				
					"/>
			</g>
		</g>
	</g>
</g>
<g id="Camada_2">
	<g>
		<path class="st1" d="M97.07,109.77c0,4.43-18.53,8.03-41.4,8.03s-41.4-3.6-41.4-8.03c0-4.44,18.53-8.03,41.4-8.03
			S97.07,105.34,97.07,109.77z"/>
		<g>
			<path class="st20" d="M28.4,100.18c-0.05,4.09,0.25,6.83,2.05,9.6h27.61c-0.23-4.63-2.56-6.52,0.33-10.86
				c2.7-4.06,6.19-7.28,3.36-12.38c-3.3-5.94-7.05-8.13-6.44-15.62c0.42-5.05,4-8.04,4.44-13.34c0.44-5.27,1.96-14.56-2.05-18.83
				c-1.29-1.37-3.31-1.2-4.64-2.32c-1.83-1.56-1.7-3.6-3.18-5.27c-2.9-3.27-6.71-1.84-9.98,0.3c-6.19,4.04-11.45,13.75-9.04,21.23
				c1.64,5.1,4.49,6.97,1,11.8c-3.04,4.21-5.81,7.29-6.26,12.75c-0.46,5.67,2.32,7.39,3.59,12.18C30.1,92.73,28.45,96.8,28.4,100.18
				z"/>
			<path class="st20" d="M48.39,100.18c-0.05,4.09,0.26,6.83,2.05,9.6h27.61c-0.23-4.63-2.56-6.52,0.33-10.86
				c2.7-4.06,6.19-7.28,3.36-12.38c-3.3-5.94-7.05-8.13-6.44-15.62c0.42-5.05,4-8.04,4.44-13.34c0.44-5.27,1.96-14.56-2.05-18.83
				c-1.29-1.37-3.31-1.2-4.64-2.32c-1.83-1.56-1.7-3.6-3.18-5.27c-2.9-3.27-6.71-1.84-9.98,0.3c-6.19,4.04-11.45,13.75-9.04,21.23
				c1.64,5.1,4.49,6.97,1,11.8c-3.04,4.21-5.81,7.29-6.25,12.75c-0.46,5.67,2.32,7.39,3.59,12.18
				C50.09,92.73,48.43,96.8,48.39,100.18z"/>
			<path class="st21" d="M82.44,95.82c-3.26-5.05-8.39-6.41-8.39-6.41l-12.28-4.55H50.05l-12.28,4.55c0,0-5.12,1.37-8.38,6.41H82.44
				z"/>
			<g>
				<path class="st21" d="M85.18,109.77c0.04-0.74,0.67-16.48-8.01-18.96c0,0-11.08-0.93-7.34,18.96H85.18z"/>
			</g>
			<path class="st2" d="M67.63,109.77h18.97l-1.64-9.82c-1.5-10.38-10.24-9.61-10.24-9.61c-9.65,2.85-8.21,12.19-8.21,12.19
				L67.63,109.77z"/>
			<path class="st20" d="M78.47,34.48c1.38,2.98,2.17,7.23,0.84,10.28c-2.95,6.76-16.19,8.54-19.84,1.8
				c-2.72-5.03-1.08-12.27,2.71-16.32C67.47,24.63,75.5,28.1,78.47,34.48z"/>
			<g>
				<rect x="50.05" y="73.34" class="st21" width="11.72" height="15.7"/>
			</g>
			<path class="st2" d="M79.42,109.77c-0.13-0.79-0.26-1.26-0.26-1.26s-3.49-13.45-2.27-17.87c0,0-2.97-1.85-11.29-4.37
				c-0.94,3.96-5.2,5.74-5.2,5.74c-8.14-0.86-13.55-5.98-13.55-5.98l-10.63,3.95c0,0-13.48,2.8-4.59,19.78H79.42z"/>
			<g>
				<path class="st21" d="M47.5,69.45c0.5,1.15,1.19,2.21,2.16,3.15c4.3,4.14,10.05,7.04,16.09,7.04
					c15.75-6.88,10.64-37.21,10.64-37.21C74.02,27.91,61.6,27.95,61.6,27.95c-9.38-0.41-17.94,4.02-19.38,13.9
					c-0.55,3.79,0.18,7.85,0.37,11.63c0.14,2.78,0.48,5.55,1.37,8.21C44.87,64.4,46.37,66.84,47.5,69.45z"/>
				<path class="st23" d="M73.97,71.09c-1.74,3.73-4.35,6.85-8.22,8.55c-6.04,0-11.78-2.9-16.09-7.04c-0.97-0.93-1.66-2-2.16-3.15
					c-0.21-0.48-0.43-0.94-0.66-1.41C54.36,76.6,65.32,84.86,73.97,71.09z"/>
				<path class="st21" d="M45.85,58.39c0,0-1.24-5.16-5.21-3.03c0,0-1.79,0.91-0.5,4.46c0,0,1.88,5.1,5.71,3.24L45.85,58.39z"/>
			</g>
			<path class="st20" d="M71.85,32.58c0,0,1.9,17.74-16.43,18.53c0,0-9.89,0.59-8.57,10.09c0,0-0.29-7.33-6.21-5.84
				c0,0-4.05-4.97-3.11-14.67c0,0-0.54-10.95,15-15.11C52.53,25.58,70.53,22.61,71.85,32.58z"/>
			<g>
				<path class="st21" d="M41.4,109.77c1.09-4.1,2.74-13.52-4.08-16.88c0,0-12.55-4.73-11.69,16.88H41.4z"/>
			</g>
			<path class="st2" d="M43.69,109.77l0.92-6.01c0,0,1.42-9.35-8.24-12.18c0,0-8.74-0.76-10.22,9.62l-1.42,8.57H43.69z"/>
		</g>
	</g>
</g>
</svg>
