<?xml version="1.0" encoding="utf-8"?>
<!-- Generator: Adobe Illustrator 24.2.1, SVG Export Plug-In . SVG Version: 6.00 Build 0)  -->
<svg version="1.1" xmlns="http://www.w3.org/2000/svg" xmlns:xlink="http://www.w3.org/1999/xlink" x="0px" y="0px"
	 viewBox="0 0 510.24 453.54" style="enable-background:new 0 0 510.24 453.54;" xml:space="preserve">
<style type="text/css">
	.st0{fill:#FFFFFF;}
	.st1{fill:#D4E8F8;}
	.st2{fill:#6058A2;}
	.st3{fill:#F7BD94;}
	.st4{fill:#88571F;}
	.st5{fill:#EBB48D;}
	.st6{fill:#AD7C5D;}
	.st7{fill:#C88E6B;}
	.st8{fill:#0062AE;}
	.st9{fill:#4D1D00;}
	.st10{fill:#7DC0EB;}
	.st11{fill:#6B2A0C;}
	.st12{fill:#4E250F;}
	.st13{fill:#63311A;}
	.st14{fill:#C48056;}
	.st15{fill:#00B2CE;}
	.st16{fill:#B2754E;}
	.st17{fill:#A66F20;}
	.st18{fill:#2C52A0;}
	.st19{fill:#4B1A0A;}
	.st20{fill:#32A3D4;}
	.st21{fill:#526598;}
	.st22{fill:#4B70A4;}
</style>
<g id="Capa_1">
	<rect class="st0" width="510.24" height="453.54"/>
	<g>
		<g>
			<path class="st1" d="M248.26,139.64c0,4.43-20.75,8.03-46.35,8.03s-46.35-3.6-46.35-8.03c0-4.44,20.75-8.03,46.35-8.03
				S248.26,135.21,248.26,139.64z"/>
			<g>
				<g>
					<path class="st2" d="M167.27,140.09h22.71c2.01-7.29,3.04-12.58,3.25-14.52c0,0,0.46-10.77-10.59-9.85
						c0,0-12.61-0.24-14.71,14.43C167.92,130.15,168.02,133.75,167.27,140.09z"/>
				</g>
				<g>
					<rect x="194.51" y="96.94" class="st3" width="12.33" height="16.5"/>
				</g>
				<path class="st3" d="M228.57,120.58c-3.43-5.31-8.82-6.74-8.82-6.74l-12.92-4.79h-12.33l-12.91,4.79c0,0-5.39,1.44-8.82,6.74
					H228.57z"/>
				<path class="st2" d="M225.45,140.09l-0.04-1.33l5.7-11.32c-1.66-11.02-11.35-13.6-11.35-13.6l-9.85-3.65L198.66,114l-7.51-3.71
					l-9.56,3.54c0,0-9.69,2.58-11.35,13.6l4.61,12.65H225.45z"/>
				<g>
					<path class="st2" d="M212.02,140.09h24.54c-3.21-10.41-6.28-17.62-7.48-19.79c0,0-5.85-9.06-14.33-1.92
						c0,0-10.44,7.08-3.68,20.28C211.06,138.66,211.41,139.14,212.02,140.09z"/>
				</g>
				<g>
					<path class="st4" d="M179.93,73.49c-0.29-2.25-0.53-3.02-0.58-8.35c-0.03-2.51,0.47-6.3,3.59-6.62
						c4.32-0.44,5.66,7.03,5.91,10.26c0.35,4.46-0.75,9.28-1.61,13.65c-0.31,1.58-0.28,4.73-2.05,5.49
						c-1.52,0.65-1.26,0.89-2.04-0.25C181.27,84.93,180.33,76.67,179.93,73.49z"/>
					<path class="st3" d="M182.26,94.64c1.71,6.69,4.73,8.54,4.73,8.54l4.04,0.79c2.33-0.3,6.34-1.24,6.34-1.24
						c9.23-3.14,12.29-2.95,14.2-7.75c0.06-0.15,6.42-24.94,6.42-24.94c1.18-12.89-12.31-15.57-14.35-15.91
						c-2.01-0.46-14.87-4.04-18.66,8.34C184.97,62.47,179.36,76.81,182.26,94.64z"/>
					<path class="st5" d="M208.62,97.15c-3.71,2.87-10,4.75-14.62,5.24c-8.21,0.87-10.06-5.18-11.47-11.58
						c0.13,1.47,0.29,2.97,0.54,4.51c1.6,6.24,4.41,7.97,4.41,7.97l3.77,0.73c2.17-0.28,5.91-1.16,5.91-1.16
						c8.61-2.93,11.47-2.75,13.24-7.23c0.01-0.02,0.12-0.46,0.31-1.2C210.14,95.47,209.5,96.46,208.62,97.15z"/>
					<path class="st4" d="M200.63,49.88c3.84-0.51,8.3-1.48,12.08-0.25c5.05,1.65,5.03,7.4,7.31,11.33
						c2.43,4.18,3.96,7.71,3.75,12.27c-0.16,3.53-1.54,1.8-2.05,5.41c-0.57,4.02-1.33,4.33-3.24,7.69l-6.93,8.66
						c1.11-4.39,0.27-5.21,1.28-8.58c1.22-4.05,0.86-9.47-0.95-13.63c-1.6-3.68-2.71-3.6-6.11-4.49c-4.37-1.14-8.14-1.57-12.68-1.64
						c-4.15-0.06-8.66-0.19-12.03-2.96c-3.1-2.55-4.25-8.21-3.05-12.1c0,0,1.9-4.29,7.25-3.13c3.27,0.72,6.6,1.68,9.97,1.79
						C197.1,50.29,198.88,50.11,200.63,49.88z"/>
					<path class="st3" d="M211.99,83.95c0,0,2.28-4.97,5.87-2.03c0,0,1.63,1.28-0.38,4.6c0,0-2.92,4.78-6.42,2.13L211.99,83.95z"/>
					<path class="st4" d="M212.35,72.36c0,0-0.02,8.9-1.65,13.62l1.74,0.35c0,0,0.91-6.1,4.05-6.18L212.35,72.36z"/>
				</g>
			</g>
		</g>
		<g>
			<path class="st1" d="M121.42,263.29c0,4.44-18.53,8.03-41.4,8.03c-22.86,0-41.4-3.6-41.4-8.03c0-4.44,18.53-8.03,41.4-8.03
				C102.88,255.26,121.42,258.86,121.42,263.29z"/>
			<g>
				<rect x="79.67" y="217.44" class="st6" width="20.99" height="39.14"/>
				<path class="st7" d="M88.95,263.29l0.81-82.73c-24.86-3.67-27.37,13.48-27.37,13.48l-3.62,69.25H88.95z"/>
				<g>
					<path class="st3" d="M69.41,263.29c1.5-16.41-9.23-14.55-9.23-14.55c-5.17,0.27-6.27,9.39-6.49,14.55H69.41z"/>
				</g>
				<g>
					<rect x="76.79" y="229.35" class="st3" width="11.72" height="15.69"/>
				</g>
				<path class="st3" d="M107.21,251.83c-3.25-6.01-6.41-6.41-6.41-6.41l-12.28-4.55H76.79l-12.27,4.55c0,0-5.13,1.37-8.39,6.41
					H107.21z"/>
				<path class="st3" d="M95.84,223.37c-2.19,3.37-5.08,6.16-8.96,8.04c-1.44,0.7-2.96,1.25-4.52,1.63
					c-1.11,0.27-3.6,1.05-4.69,0.57c-15.75-6.88-10.65-37.21-10.65-37.21c2.37-14.52,14.78-14.48,14.78-14.48
					c9.38-0.41,17.94,4.02,19.38,13.91c0.55,3.79-0.18,7.85-0.37,11.63c-0.14,2.78-0.48,5.55-1.37,8.21
					C98.53,218.43,97.35,221.04,95.84,223.37z"/>
				<path class="st5" d="M79.63,232.42c7-0.5,12.62-5.93,17.31-10.91c-0.35,0.63-0.71,1.25-1.1,1.85c-2.19,3.37-5.08,6.16-8.96,8.04
					c-1.44,0.7-2.96,1.25-4.52,1.63c-1.11,0.27-3.6,1.05-4.69,0.57c-2.48-1.08-4.44-2.75-5.99-4.79
					C73.8,230.32,76.91,232.61,79.63,232.42z"/>
				<path class="st7" d="M94.47,225.26c1.45-10.64,1.71-18.75-6.38-22.3c-5.46-2.4-19.32-3.27-19.32-12.3
					c0-7.14,7.07-8.61,12.87-10.14c8.77-2.31,21.73,4.35,23.86,13.47C105.5,193.99,109.26,216.88,94.47,225.26z"/>
				<path class="st3" d="M94.48,212.37c0,0,1.24-5.16,5.21-3.03c0,0,1.79,0.91,0.5,4.45c0,0-1.88,5.11-5.72,3.24L94.48,212.37z"/>
				<path class="st8" d="M106.67,263.29l1.84-4.94c-2.01-11.75-7.39-13.07-7.39-13.07l-9.4-3.23c0,0-5.4,5.12-13.55,5.98
					c0,0-4.26-1.79-5.2-5.74l-6.15,2.26c0,0-1.21,5.9-6.86,18.74H106.67z"/>
				<g>
					<path class="st3" d="M109.71,263.29l-0.14-0.92c-0.53-13.08-7.37-16.56-7.37-16.56c-9.36,0.58-9.68,10.98-8.95,17.48H109.71z"
						/>
				</g>
				<path class="st7" d="M95.49,215.42v47.88h13.36l-1.22-54.47c0,0,1.56-20.31-11.99-26.07l-4.1,20.51
					C91.54,203.26,94.97,203.81,95.49,215.42z"/>
			</g>
		</g>
		<g>
			<path class="st1" d="M359.74,139.64c0,4.43-18.54,8.03-41.4,8.03s-41.4-3.6-41.4-8.03c0-4.44,18.53-8.03,41.4-8.03
				S359.74,135.21,359.74,139.64z"/>
			<g>
				<path class="st9" d="M289.65,66.58c-0.02,1.51-0.01,2.37,0.84,3.65c0.74,1.13,1.34,1.54,1.34,2.9c0,2.19-1.7,4.37-2.02,6.61
					c-0.73,5.03,2.55,12.41,8.95,13.53c7.28,1.27,10.99-3.34,13.6-8.68c3.84-7.85,0.55-16.08-2.14-23.65
					c-0.76-2.14-0.62-3.77-2.96-5c-3.79-1.99-8.39-0.48-11.86,1.48C291.86,59.43,289.7,62.88,289.65,66.58z"/>
				<g>
					<path class="st3" d="M348.12,139.64l-1.17-6c0,0-1.18-13.25-7.4-11.18c0,0-8.62,3.46-6.02,17.18H348.12z"/>
				</g>
				<g>
					<rect x="313.38" y="103.39" class="st3" width="11.72" height="15.69"/>
				</g>
				<path class="st3" d="M292.71,125.87c3.26-5.04,8.39-6.41,8.39-6.41l12.28-4.55h11.72l12.27,4.55c0,0,5.13,1.37,8.39,6.41H292.71
					z"/>
				<path class="st10" d="M341.11,139.64l7.06-7.26c-1.58-10.48-10.8-12.93-10.8-12.93l-9.08-3.37l-6.76,4.3l-11.07-4.4l-9.37,3.47
					c0,0-9.21,2.45-10.8,12.93c0,0,2.58,3.92,4.77,7.26H341.11z"/>
				<g>
					<path class="st3" d="M303.23,139.64l0.65-3.32c0,0,2.02-10.19-5.09-13.44c0,0-9.62-1.76-9.85,15.13l-0.16,1.63H303.23z"/>
				</g>
				<path class="st10" d="M305.21,139.64l0.27-1.58c2.31-11.35-5.69-17.56-5.69-17.56c-8.68,1.73-11.13,9.13-11.13,9.13l-3.04,10.01
					H305.21z"/>
				<path class="st10" d="M330.96,139.64h20.09l-5.1-12.91c0,0-3.53-6.98-11.25-4.39c0,0-7.26,5.04-4.04,16.17L330.96,139.64z"/>
				<path class="st3" d="M306.14,96.84c0.5,1.15,1.19,2.21,2.16,3.15c4.3,4.14,10.05,7.04,16.09,7.04
					c15.75-6.88,10.64-37.21,10.64-37.21c-2.37-14.51-14.78-14.48-14.78-14.48c-9.38-0.41-17.94,4.02-19.38,13.91
					c-0.55,3.78,0.18,7.85,0.37,11.63c0.14,2.78,0.48,5.55,1.37,8.21C303.51,91.79,305.01,94.23,306.14,96.84z"/>
				<path class="st5" d="M325.17,105.26c-6.1,1.38-12.35-3.04-17.63-6.1c0.23,0.28,0.48,0.56,0.76,0.83
					c4.3,4.14,10.05,7.04,16.09,7.04c1.8-0.79,3.31-1.89,4.6-3.2C327.75,104.46,326.48,104.96,325.17,105.26z"/>
				<path class="st11" d="M335.83,84.15c0.3-4.79-0.13-8.62-3.1-12.44c-2.77-3.57-7.09-4.01-7.92-9.17
					c-0.71-4.45-6.45-10.62-0.86-9.82c9.14,1.3,13.76,11.36,13.98,16.15c0.21,4.37,0.24,9.71-1.85,13.44L335.83,84.15z"/>
				<path class="st11" d="M312.33,74.39c-7.1,4.22-8.88,14.07-6.54,21.7c-5.13-4.1-7.62-7.69-9.26-12.81
					c-1.7-5.32-1.64-8.33-1.1-13.96c1.35-14.02,15.79-21.57,31.24-15.32c5.72,2.31,4.61,9.63,0.25,13.59
					C322.89,71.25,316.9,71.67,312.33,74.39z"/>
				<path class="st3" d="M306.33,84.71c0,0-1.24-5.17-5.21-3.03c0,0-1.79,0.91-0.5,4.45c0,0,1.88,5.1,5.71,3.24L306.33,84.71z"/>
			</g>
		</g>
		<g>
			<path class="st1" d="M359.74,263.29c0,4.43-18.54,8.03-41.4,8.03s-41.4-3.6-41.4-8.03c0-4.44,18.53-8.03,41.4-8.03
				S359.74,258.86,359.74,263.29z"/>
			<g>
				<path class="st12" d="M330.86,211.2c-5.19,0.76-6.54,10.07-0.52,10.53c0,4.68-2.9,13.46,4.11,12.89
					c-2.11,12.06,14.22,1.71,16.61-0.88c11.17-12.11,6-32.65-1.17-34.62c1.51-9.78-10.15-17.19-18.75-15.6
					c-5.47,1.01-9.1,10.48-8.09,16.15C323.27,200.92,330.17,211.3,330.86,211.2z"/>
				<path class="st13" d="M296.93,190.01c-1.38,2.98-2.17,7.23-0.84,10.28c2.95,6.76,16.19,8.54,19.84,1.8
					c2.72-5.03,1.08-12.27-2.72-16.32C307.93,180.15,299.9,183.62,296.93,190.01z"/>
				<path class="st14" d="M344.52,263.29c2.05-4.81,3-12.02-5.35-17.78l-15.13,3.13c0,0-0.15,8.53,3.14,14.64H344.52z"/>
				<g>
					<path class="st14" d="M305.9,263.29c2.63-17.82-7.68-16.96-7.68-16.96c-6.95,1.99-7.92,12.47-8.02,16.96H305.9z"/>
				</g>
				<g>
					<rect x="313.63" y="228.87" class="st14" width="11.72" height="15.69"/>
				</g>
				<path class="st14" d="M292.96,251.34c3.26-5.04,8.39-6.42,8.39-6.42l12.28-4.55h11.72l12.28,4.55c0,0,5.12,1.37,8.39,6.42
					H292.96z"/>
				<path class="st15" d="M332.01,263.29c-3.51-6.17-3.65-12.7,0.63-20.21l-4.1-1.52c0,0-5.4,5.12-13.55,5.97
					c0,0-4.26-1.78-5.2-5.74l-4.11,1.51c0,0-1.73,6.58-9.04,19.98H332.01z"/>
				<g>
					<path class="st14" d="M327.9,224.97c-0.5,1.15-1.19,2.21-2.16,3.15c-4.3,4.14-10.05,7.04-16.08,7.04
						c-15.75-6.88-10.65-37.21-10.65-37.21c2.37-14.52,14.78-14.48,14.78-14.48c9.38-0.41,17.94,4.02,19.38,13.91
						c0.55,3.78-0.18,7.85-0.37,11.63c-0.14,2.78-0.48,5.56-1.37,8.21C330.53,219.92,329.03,222.36,327.9,224.97z"/>
					<path class="st16" d="M301.43,226.61c1.74,3.74,4.34,6.86,8.22,8.55c6.03,0,11.78-2.9,16.08-7.04
						c0.97-0.93,1.66-1.99,2.16-3.15c0.21-0.47,0.43-0.94,0.66-1.4C321.04,232.12,310.08,240.38,301.43,226.61z"/>
					<path class="st14" d="M329.55,213.91c0,0,1.24-5.16,5.21-3.03c0,0,1.79,0.91,0.5,4.45c0,0-1.88,5.11-5.71,3.24L329.55,213.91z"
						/>
				</g>
				<g>
					<path class="st14" d="M348.17,263.29c0.1-21.32-12.2-16.24-12.2-16.24c-6.32,3.36-4.97,11.87-3.78,16.24H348.17z"/>
				</g>
				<path class="st13" d="M303.55,188.1c0,0-1.9,17.74,16.43,18.54c0,0,9.89,0.59,8.57,10.09c0,0,0.28-7.34,6.21-5.85
					c0,0,4.05-4.97,3.11-14.67c0,0,0.54-10.95-14.99-15.11C322.87,181.11,304.87,178.14,303.55,188.1z"/>
			</g>
		</g>
		<g>
			<path class="st1" d="M243.31,397.26c0,4.44-18.54,8.03-41.4,8.03s-41.4-3.6-41.4-8.03c0-4.44,18.53-8.03,41.4-8.03
				S243.31,392.83,243.31,397.26z"/>
			<g>
				<rect x="194.08" y="329.28" class="st17" width="31.43" height="67.98"/>
				<g>
					<path class="st3" d="M186.88,397.26c1.25-11.77-6.37-14.82-6.37-14.82c-7.04,0-8.63,11.36-8.63,11.36l-0.55,3.46H186.88z"/>
				</g>
				<g>
					<rect x="195.74" y="363.37" class="st3" width="11.72" height="15.69"/>
				</g>
				<path class="st3" d="M227.23,385.85c-3.26-5.05-7.49-6.41-7.49-6.41l-12.28-4.55h-11.72l-12.28,4.55c0,0-5.13,1.37-8.39,6.41
					H227.23z"/>
				<rect x="183.26" y="383.38" class="st3" width="33.11" height="13.88"/>
				<path class="st2" d="M227.33,397.26c1.7-2.58,0.81-5.12,0.81-5.12c0.23-9.7-8.39-12.71-8.39-12.71l-9.37-3.47
					c0.46,17.05-14.63,14.41-14.63,14.41c-12.98-0.92-3.19-14.31-3.19-14.31l-7.52,2.79l-5.75,14.35c0,0-0.87,1.59-1.59,4.06H227.33
					z"/>
				<g>
					<path class="st3" d="M215.11,397.26h14.41l-0.13-1.58c0.02-16.9-9.63-15.27-9.63-15.27c-7.15,3.14-5.28,13.36-5.28,13.36
						L215.11,397.26z"/>
				</g>
				<path class="st3" d="M214.71,356.82c-0.5,1.15-1.19,2.22-2.16,3.15c-4.3,4.14-10.05,7.04-16.09,7.04
					c-15.75-6.88-10.64-37.21-10.64-37.21c2.37-14.51,14.78-14.48,14.78-14.48c9.38-0.41,17.94,4.02,19.38,13.9
					c0.55,3.79-0.18,7.85-0.37,11.63c-0.14,2.78-0.48,5.55-1.37,8.21C217.34,351.77,215.84,354.21,214.71,356.82z"/>
				<path class="st5" d="M195.67,365.24c6.1,1.38,12.35-3.04,17.63-6.1c-0.23,0.29-0.48,0.57-0.76,0.83
					c-4.3,4.14-10.05,7.04-16.09,7.04c-1.79-0.79-3.31-1.88-4.6-3.2C193.09,364.44,194.37,364.94,195.67,365.24z"/>
				<path class="st17" d="M185.02,344.13c-0.3-4.79,0.13-8.62,3.1-12.44c2.77-3.57,3.45-4.36,4.27-9.52
					c0.71-4.45,10.09-10.27,4.5-9.48c-9.14,1.3-13.76,11.36-13.98,16.15c-0.21,4.37-0.24,9.71,1.85,13.44L185.02,344.13z"/>
				<path class="st17" d="M207.01,339.58c12.08,3.8,10.38,8.86,8.04,16.49c5.13-4.1,7.63-7.69,9.26-12.81
					c1.71-5.32,1.65-8.33,1.11-13.96c-1.35-14.02-15.79-21.57-31.25-15.32c-5.72,2.31-4.5,11.94-1.41,16.49
					C195.81,334.98,198.66,336.96,207.01,339.58z"/>
				<path class="st3" d="M214.51,344.69c0,0,1.24-5.16,5.21-3.03c0,0,1.79,0.91,0.5,4.45c0,0-1.88,5.11-5.71,3.24V344.69z"/>
			</g>
		</g>
		<g>
			<path class="st1" d="M126.37,397.26c0,4.44-20.75,8.03-46.34,8.03c-25.6,0-46.35-3.6-46.35-8.03c0-4.44,20.75-8.03,46.35-8.03
				C105.62,389.23,126.37,392.83,126.37,397.26z"/>
			<g>
				<g>
					<path class="st18" d="M46.56,397.26h23.66c1.05-4.34,1.62-7.46,1.77-8.85c0,0,0.46-10.77-10.59-9.85
						c0,0-12.61-0.24-14.72,14.43C46.68,393,46.72,394.5,46.56,397.26z"/>
				</g>
				<g>
					<rect x="73.27" y="359.79" class="st14" width="12.33" height="16.5"/>
				</g>
				<path class="st14" d="M107.33,383.42c-3.43-5.3-8.82-6.74-8.82-6.74l-12.92-4.78H73.27l-12.91,4.78c0,0-5.39,1.44-8.82,6.74
					H107.33z"/>
				<path class="st2" d="M106.35,397.26l3.51-6.98c-1.66-11.02-11.35-13.6-11.35-13.6l-9.85-3.65l-11.24,3.82l-7.5-3.71l-9.56,3.54
					c0,0-9.69,2.58-11.35,13.6l2.54,6.98H106.35z"/>
				<g>
					<path class="st18" d="M113.49,397.26c-2.49-7.34-4.68-12.37-5.65-14.12c0,0-5.85-9.05-14.33-1.92c0,0-8.2,5.57-5.34,16.04
						H113.49z"/>
				</g>
				<g>
					<path class="st13" d="M60.77,336.33c-0.28-2.25-0.52-3.02-0.58-8.35c-0.03-2.51,0.46-6.3,3.58-6.62
						c4.33-0.44,5.66,7.03,5.92,10.27c0.35,4.46-0.75,9.28-1.62,13.65c-0.31,1.58-0.28,4.73-2.05,5.49
						c-1.52,0.65-1.26,0.89-2.04-0.25C62.12,347.77,61.17,339.51,60.77,336.33z"/>
					<path class="st14" d="M61.03,357.49c1.71,6.69,4.72,8.54,4.72,8.54l4.04,0.79c2.33-0.3,6.34-1.24,6.34-1.24
						c9.23-3.14,12.29-2.95,14.2-7.75c0.06-0.15,6.41-24.94,6.41-24.94c1.18-12.89-12.31-15.57-14.35-15.91
						c-2.01-0.46-14.86-4.04-18.66,8.34C63.73,325.31,58.12,339.65,61.03,357.49z"/>
					<path class="st16" d="M87.38,359.99c-3.71,2.87-9.99,4.75-14.62,5.24c-8.21,0.87-10.06-5.18-11.47-11.58
						c0.12,1.47,0.29,2.97,0.54,4.51c1.59,6.24,4.41,7.96,4.41,7.96l3.77,0.74c2.17-0.28,5.91-1.16,5.91-1.16
						c8.61-2.93,11.46-2.75,13.24-7.23c0.01-0.02,0.12-0.46,0.32-1.2C88.9,358.32,88.26,359.31,87.38,359.99z"/>
					<path class="st13" d="M57.3,318c0.58-0.93,1.54-0.77,2.01-1.96c0.4-1-0.39-2.46,0.3-3.32c1.05-1.3,4.71-0.94,6.02-0.51
						c2.32,0.75,2.78,2.04,5.28,0.92c2.13-0.95,2.57-2.2,5.28-1.72c1.99,0.35,3.33,1.63,5.6,1.26c2.01-0.33,3.29-1.76,5.54-1.58
						c1.09,0.09,2.3,0.25,3.11,1.13c0.93,1.01,0.34,1.5,0.84,2.57c0.65,1.36,0.06,0.99,1.32,1.84c0.73,0.5,1.89,0.15,2.57,0.85
						c1.81,1.84-0.24,4.49,0.84,6.29c1.14,1.91,4.37,0.69,5.04,3.42c0.28,1.14-0.74,2.09-0.54,3.17c0.27,1.44,0.79,1.05,1.51,2.18
						c1.07,1.68,1.49,2.96,0.09,4.96c-1.56,2.24-2.13,2.42-2.13,5.52c0,3.37-0.42,2.99-2.43,5.21c-1.67,1.83-1.22,3.99-3.1,5.62
						c-0.69,0.6-1.62,0.71-2.39,1.57c-0.68,0.76-0.83,1.92-1.79,2.62c-0.39-3.92,1.87-7.64,2.06-11.58
						c0.17-3.4-0.05-9.92-2.03-12.73c-2.4-3.41-8.31-2.31-11.97-2.31C73.73,331.4,51.46,327.25,57.3,318z"/>
					<path class="st14" d="M90.76,346.79c0,0,2.28-4.97,5.87-2.03c0,0,1.63,1.27-0.38,4.6c0,0-2.92,4.78-6.42,2.14L90.76,346.79z"/>
				</g>
			</g>
		</g>
	</g>
</g>
<g id="Camada_2">
	<g>
		<path class="st1" d="M652.09,131.5c0,4.44-18.53,8.03-41.4,8.03s-41.4-3.6-41.4-8.03c0-4.44,18.53-8.03,41.4-8.03
			S652.09,127.07,652.09,131.5z"/>
		<g>
			<path class="st19" d="M583.91,75.72c0,0,3.72,30.22-1.82,40.76c0,0,14.84-8.12,15.79-15.38c0,0,5.3-31.35-2.28-43.67
				C595.61,57.43,582.42,51.43,583.91,75.72z"/>
			<path class="st19" d="M586.39,57.99c-1.39,2.98-2.17,7.23-0.84,10.28c2.95,6.77,16.19,8.55,19.84,1.8
				c2.72-5.03,1.08-12.27-2.71-16.32C597.39,48.13,589.36,51.6,586.39,57.99z"/>
			<path class="st14" d="M633.98,131.28c2.06-4.81,3-12.02-5.35-17.78l-15.13,3.13c0,0-0.15,8.53,3.15,14.64H633.98z"/>
			<g>
				<rect x="603.09" y="96.85" class="st14" width="11.72" height="15.69"/>
			</g>
			<path class="st14" d="M582.42,119.33c3.26-5.04,8.39-6.41,8.39-6.41l12.28-4.55h11.72l12.27,4.55c0,0,5.13,1.37,8.39,6.41H582.42
				z"/>
			<path class="st20" d="M621.46,131.28c-3.51-6.06-3.79-12.12-1.05-20.84l-2.4-0.89c0,0-5.4,5.12-13.54,5.98
				c0,0-4.26-1.79-5.2-5.74l-4.11,1.51c0,0-1.73,6.57-9.04,19.98H621.46z"/>
			<path class="st21" d="M599,131.28l-2.15-20.61l-1.71,0.63l-6.55,2.2c-7.83,2.9-4.24,14.71-3.16,17.78H599z"/>
			<path class="st21" d="M632.83,131.28c4.22-13.88-4.2-17.78-4.2-17.78L618,109.55l-5.76,21.73H632.83z"/>
			<polygon class="st22" points="621.4,131.28 622.84,128.19 618,127.23 626.91,112.78 618,109.55 612.24,131.28 			"/>
			<path class="st14" d="M617.36,92.96c-0.5,1.16-1.19,2.22-2.16,3.15c-4.3,4.14-10.05,7.04-16.09,7.04
				c-15.75-6.88-10.64-37.21-10.64-37.21c2.36-14.51,14.78-14.48,14.78-14.48c9.38-0.4,17.94,4.02,19.38,13.91
				c0.56,3.79-0.17,7.85-0.36,11.63c-0.14,2.78-0.48,5.55-1.37,8.21C619.99,87.91,618.49,90.35,617.36,92.96z"/>
			<path class="st16" d="M590.89,94.6c1.74,3.73,4.35,6.85,8.22,8.54c6.03,0,11.78-2.9,16.09-7.04c0.97-0.93,1.66-1.99,2.16-3.15
				c0.21-0.47,0.43-0.94,0.66-1.4C610.49,100.1,599.54,108.36,590.89,94.6z"/>
			<path class="st14" d="M619.01,81.9c0,0,1.24-5.16,5.21-3.03c0,0,1.8,0.91,0.5,4.45c0,0-1.88,5.11-5.71,3.24L619.01,81.9z"/>
			<g>
				<path class="st14" d="M641.04,131.28c-4.89-23.55-14.72-15.23-14.72-15.23c-4.64,4.24-3.25,10.94-1.65,15.23H641.04z"/>
			</g>
			<path class="st19" d="M590.02,53.37c0,0,1.09,20.46,19.42,21.25c0,0,9.89,0.59,8.58,10.09c0,0,0.28-7.33,6.2-5.84
				c0,0,4.05-4.97,3.11-14.67c0,0,0.54-10.95-14.99-15.1C612.33,49.09,597.96,43.65,590.02,53.37z"/>
			<path class="st19" d="M613.49,75.72c0,0,3.72,30.22-1.82,40.76c0,0,14.84-8.12,15.79-15.38c0,0,5.3-31.35-2.28-43.67
				C625.19,57.43,614.52,61.22,613.49,75.72z"/>
			<path class="st21" d="M624.32,131.28h18.05l-2.62-7.15c0,0-2.59-9.36-11.13-10.62c0,0-9.41,5.12-4.94,16.4L624.32,131.28z"/>
			<g>
				<path class="st14" d="M595.36,131.28c2.63-17.83-7.68-16.96-7.68-16.96c-6.95,1.99-7.92,12.47-8.02,16.96H595.36z"/>
				<path class="st21" d="M595.99,131.28l0.84-7.42c0,0,0.83-8.75-8.29-10.01c0,0-7.74-0.08-9.32,10.61l-0.2,6.82H595.99z"/>
			</g>
			<polygon class="st22" points="589.56,131.28 599,131.28 596.85,110.67 589.26,113.5 594.2,126.83 588.62,127.72 			"/>
		</g>
	</g>
</g>
</svg>
